# ProBuilder 5.2.4
# https://unity3d.com/unity/features/worldbuilding/probuilder
# 9/18/2026 9:37:49 PM

mtllib ./HE_10.3.mtl
o HE 10.3

g HE 10.3
v 1.731655 5.960464E-07 0
v 3.695488E-06 5.960464E-07 0
v 1.731655 2.89265 0
v 3.695488E-06 2.89265 0
v 3.695488E-06 5.960464E-07 -4.692175
v 3.695488E-06 2.89265 -4.692175
v 1.731655 5.960464E-07 -4.692175
v 1.731655 2.89265 -4.692175

vt 1.731655 5.960464E-07
vt 3.695488E-06 5.960464E-07
vt 1.731655 2.89265
vt 3.695488E-06 2.89265
vt -4.692175 5.960464E-07
vt -4.692175 2.89265
vt -1.731655 5.960464E-07
vt -1.731655 2.89265
vt 4.692175 5.960464E-07
vt 4.692175 2.89265
vt -1.731655 -4.692175
vt -3.695488E-06 -4.692175
vt 1.731655 -4.692175

vn 0 0 1
vn -1 0 0
vn 0 0 -1
vn 1 0 0
vn 0 1 0
vn 0 -1 0

usemtl M_VertexColor
f 3/3/1 4/4/1 2/2/1 1/1/1
f 4/4/2 6/6/2 5/5/2 2/2/2
f 6/4/3 8/8/3 7/7/3 5/2/3
f 8/10/4 3/4/4 1/2/4 7/9/4
f 8/11/5 6/12/5 4/2/5 3/7/5
f 1/1/6 2/2/6 5/12/6 7/13/6

